<svg width="16" height="15" viewBox="0 0 16 15" fill="none" xmlns="http://www.w3.org/2000/svg">
<path d="M14.828 1.5871C13.2659 0.0250031 10.7332 0.0250031 9.1711 1.5871L9.08199 1.67621C9.36617 1.84404 9.63404 2.05004 9.87821 2.29421C10.1224 2.53837 10.3284 2.80625 10.4962 3.09042L10.5853 3.00131C11.3664 2.22027 12.6327 2.22027 13.4137 3.00131C14.1948 3.78236 14.1948 5.04869 13.4137 5.82974L7.12132 12.1222C5.94975 13.2937 4.05025 13.2937 2.87868 12.1222C1.70711 10.9506 1.70711 9.05111 2.87868 7.87954L6.34272 4.41553C6.73324 4.025 7.36641 4.025 7.75693 4.41553C8.14745 4.80605 8.14745 5.43922 7.75693 5.82974L5.0503 8.53637C4.65977 8.9269 4.65977 9.56006 5.0503 9.95059C5.44082 10.3411 6.07399 10.3411 6.46451 9.95059L9.17114 7.24396C10.3427 6.07238 10.3427 4.17289 9.17114 3.00131C7.99957 1.82974 6.10008 1.82974 4.9285 3.00131L1.46447 6.46532C-0.488155 8.41794 -0.488155 11.5838 1.46447 13.5364C3.41709 15.489 6.58291 15.489 8.53553 13.5364L14.828 7.24395C16.3901 5.68186 16.3901 3.1492 14.828 1.5871Z" fill="#2C2D2E"/>
</svg>
