<svg width="55" height="22" viewBox="0 0 55 22" fill="none" xmlns="http://www.w3.org/2000/svg">
<path fill-rule="evenodd" clip-rule="evenodd" d="M41.7329 21.4784H38.7109V20.3741C37.5433 21.3884 36.0179 21.9926 34.2233 21.9926C29.9317 21.9926 26.4475 18.5371 26.4475 14.2809C26.4475 10.0247 29.9317 6.56923 34.2233 6.56923C36.0179 6.56923 37.5433 7.17341 38.7109 8.18771V7.08328H41.7329V21.4784ZM3.37059 21.4784H0.348633V7.08338H3.37059V7.88275C4.04171 7.25699 5.30475 6.57134 6.87174 6.56923C8.88418 6.56923 10.6863 7.47818 11.8838 8.9035C13.0814 7.47818 14.8835 6.56923 16.8959 6.56923C20.4927 6.56923 23.419 9.47139 23.419 13.0385V21.4784H20.397V13.0385C20.397 11.124 18.8263 9.56636 16.8959 9.56636C14.9653 9.56636 13.3949 11.124 13.3949 13.0385V21.4784H10.3728V13.0385C10.3728 11.124 8.80215 9.56636 6.87174 9.56636C4.94124 9.56636 3.37059 11.124 3.37059 13.0385V21.4784ZM45.3443 21.4784H48.3663V7.08337H45.3443V21.4784ZM51.978 21.4784H55V0.914003H51.978V21.4784ZM34.2233 9.52593C36.8694 9.52593 38.9546 11.6566 38.9546 14.2809C38.9546 16.9052 36.8694 19.0358 34.2233 19.0358C31.5771 19.0358 29.4288 16.9052 29.4288 14.2809C29.4288 11.6566 31.5771 9.52593 34.2233 9.52593ZM46.8577 0.399857C48.0033 0.399857 48.9334 1.32231 48.9334 2.4584C48.9334 3.59458 48.0033 4.51704 46.8577 4.51704C45.7121 4.51704 44.782 3.59458 44.782 2.4584C44.782 1.32231 45.7121 0.399857 46.8577 0.399857Z" fill="#005FF9"/>
</svg>
