<svg width="55" height="22" viewBox="0 0 55 22" fill="none" xmlns="http://www.w3.org/2000/svg">
<path fill-rule="evenodd" clip-rule="evenodd" d="M41.7329 21.4785H38.7109V20.3741C37.5433 21.3884 36.0179 21.9926 34.2233 21.9926C29.9317 21.9926 26.4475 18.5371 26.4475 14.2809C26.4475 10.0247 29.9317 6.56927 34.2233 6.56927C36.0179 6.56927 37.5433 7.17346 38.7109 8.18776V7.08333H41.7329V21.4785ZM3.37059 21.4785H0.348633V7.08343H3.37059V7.88279C4.04171 7.25703 5.30475 6.57139 6.87174 6.56927C8.88418 6.56927 10.6863 7.47822 11.8838 8.90354C13.0814 7.47822 14.8835 6.56927 16.8959 6.56927C20.4927 6.56927 23.419 9.47143 23.419 13.0386V21.4785H20.397V13.0386C20.397 11.1241 18.8263 9.5664 16.8959 9.5664C14.9653 9.5664 13.3949 11.1241 13.3949 13.0386V21.4785H10.3728V13.0386C10.3728 11.1241 8.80215 9.5664 6.87174 9.5664C4.94124 9.5664 3.37059 11.1241 3.37059 13.0386V21.4785ZM45.3443 21.4785H48.3663V7.08342H45.3443V21.4785ZM51.978 21.4785H55V0.914049H51.978V21.4785ZM34.2233 9.52597C36.8694 9.52597 38.9546 11.6566 38.9546 14.2809C38.9546 16.9052 36.8694 19.0359 34.2233 19.0359C31.5771 19.0359 29.4288 16.9052 29.4288 14.2809C29.4288 11.6566 31.5771 9.52597 34.2233 9.52597ZM46.8577 0.399902C48.0033 0.399902 48.9334 1.32236 48.9334 2.45844C48.9334 3.59463 48.0033 4.51708 46.8577 4.51708C45.7121 4.51708 44.782 3.59463 44.782 2.45844C44.782 1.32236 45.7121 0.399902 46.8577 0.399902Z" fill="white"/>
</svg>
